<svg width="633" height="366" viewBox="0 0 633 366" fill="none" xmlns="http://www.w3.org/2000/svg">
<path d="M175.514 28.3655H121.75L14.2347 135.887V179.411H121.75V233.173H175.514V135.887H67.9904L175.514 28.3655Z" fill="black"/>
<path d="M198.553 82.1261L252.313 28.3663H198.553V82.1261Z" fill="black"/>
<path d="M306.073 82.1261V28.3663H252.314V82.1261L198.554 135.886V189.652H252.314V135.886L306.073 82.1261Z" fill="black"/>
<path d="M306.073 135.887L252.314 189.651H306.073V135.887Z" fill="black"/>
<path d="M203.097 287.12H198.852V233.668H203.097V287.12Z" fill="#1B1C1C"/>
<path d="M233.469 318.799H226.931V290.484H233.469V318.799Z" fill="black"/>
<path d="M239.07 299.866H245.183V302.116C247.052 299.738 249.259 299.356 251.043 299.356C252.697 299.356 254.862 299.653 256.475 301.268C258.259 303.05 258.387 305.3 258.387 306.828V318.801H252.272V309.078C252.272 307.847 252.231 306.276 251.255 305.3C250.787 304.832 250.024 304.452 248.918 304.452C247.646 304.452 246.839 304.962 246.373 305.469C245.352 306.488 245.183 307.847 245.183 309.078V318.801H239.07V299.866Z" fill="black"/>
<path d="M263.136 299.866H269.249V302.116C271.117 299.738 273.324 299.356 275.108 299.356C276.762 299.356 278.928 299.653 280.541 301.268C282.325 303.05 282.453 305.3 282.453 306.828V318.801H276.338V309.078C276.338 307.847 276.296 306.276 275.321 305.3C274.853 304.832 274.089 304.452 272.984 304.452C271.711 304.452 270.905 304.962 270.439 305.469C269.418 306.488 269.249 307.847 269.249 309.078V318.801H263.136V299.866Z" fill="black"/>
<path d="M293.951 305.767C293.058 306.66 292.548 307.805 292.548 309.333C292.548 311.074 293.229 312.177 293.951 312.899C294.714 313.664 295.817 314.258 297.43 314.258C298.789 314.258 299.936 313.792 300.827 312.899C301.72 312.008 302.229 310.861 302.229 309.333C302.229 307.805 301.72 306.66 300.827 305.767C299.936 304.874 298.789 304.41 297.389 304.41C295.988 304.41 294.842 304.874 293.951 305.767ZM305.667 316.38C303.968 318.08 301.083 319.437 297.389 319.437C293.695 319.437 290.81 318.08 289.11 316.38C287.2 314.47 286.266 311.752 286.266 309.333C286.266 306.914 287.2 304.195 289.11 302.288C290.81 300.586 293.695 299.229 297.389 299.229C301.083 299.229 303.968 300.586 305.667 302.288C307.577 304.195 308.511 306.914 308.511 309.333C308.511 311.752 307.577 314.47 305.667 316.38Z" fill="black"/>
<path d="M316.742 299.866L321.54 310.013L326.337 299.866H333.044L323.449 318.801H319.63L310.035 299.866H316.742Z" fill="black"/>
<path d="M342.252 305.851C341.615 306.489 340.849 307.592 340.849 309.29C340.849 310.989 341.571 312.092 342.124 312.686C342.974 313.577 344.29 314.171 345.731 314.171C346.965 314.171 348.109 313.664 348.916 312.855C349.724 312.092 350.403 310.902 350.403 309.29C350.403 307.932 349.893 306.66 349 305.808C348.068 304.917 346.709 304.494 345.605 304.494C344.29 304.494 343.058 305.045 342.252 305.851ZM350.021 299.866H356.134V318.799H350.021V316.508C348.365 319.053 345.987 319.437 344.418 319.437C341.699 319.437 339.408 318.758 337.327 316.549C335.332 314.427 334.567 311.965 334.567 309.461C334.567 306.276 335.757 303.56 337.496 301.819C339.152 300.163 341.446 299.229 344.077 299.229C345.69 299.229 348.28 299.613 350.021 301.988V299.866Z" fill="black"/>
<path d="M367.165 304.79V318.8H361.052V304.79H358.93V299.865H361.052V293.752H367.165V299.865H370.944V304.79H367.165Z" fill="black"/>
<path d="M380.111 318.799H373.998V299.864H380.111V318.799ZM377.054 288.234C379.051 288.234 380.62 289.805 380.62 291.8C380.62 293.794 379.051 295.366 377.054 295.366C375.06 295.366 373.488 293.794 373.488 291.8C373.488 289.805 375.06 288.234 377.054 288.234Z" fill="black"/>
<path d="M392.038 305.767C391.145 306.66 390.635 307.805 390.635 309.333C390.635 311.074 391.316 312.177 392.038 312.899C392.801 313.664 393.904 314.258 395.517 314.258C396.876 314.258 398.023 313.792 398.914 312.899C399.807 312.008 400.316 310.861 400.316 309.333C400.316 307.805 399.807 306.66 398.914 305.767C398.023 304.874 396.876 304.41 395.476 304.41C394.075 304.41 392.929 304.874 392.038 305.767ZM403.755 316.38C402.055 318.08 399.17 319.437 395.476 319.437C391.782 319.437 388.897 318.08 387.197 316.38C385.287 314.47 384.353 311.752 384.353 309.333C384.353 306.914 385.287 304.195 387.197 302.288C388.897 300.586 391.782 299.229 395.476 299.229C399.17 299.229 402.055 300.586 403.755 302.288C405.664 304.195 406.599 306.914 406.599 309.333C406.599 311.752 405.664 314.47 403.755 316.38Z" fill="black"/>
<path d="M410.414 299.866H416.528V302.116C418.396 299.738 420.603 299.356 422.387 299.356C424.041 299.356 426.207 299.653 427.819 301.268C429.603 303.05 429.731 305.3 429.731 306.828V318.801H423.616V309.078C423.616 307.847 423.575 306.276 422.599 305.3C422.131 304.832 421.368 304.452 420.263 304.452C418.99 304.452 418.184 304.962 417.718 305.469C416.697 306.488 416.528 307.847 416.528 309.078V318.801H410.414V299.866Z" fill="black"/>
<path d="M459.948 308.442L456.467 298.932L452.944 308.442H459.948ZM461.732 313.451H451.032L448.867 318.799H442.075L453.495 290.484H459.48L470.646 318.799H463.855L461.732 313.451Z" fill="black"/>
<path d="M487.324 305.851C485.839 304.62 484.311 304.41 483.333 304.41C481.424 304.41 480.277 305.342 479.852 305.767C479.046 306.575 478.452 307.805 478.452 309.333C478.452 310.733 478.961 311.921 479.724 312.73C480.66 313.749 482.061 314.258 483.418 314.258C484.48 314.258 485.924 313.961 487.324 312.771V318.29C485.711 319.183 484.183 319.437 482.484 319.437C479.301 319.437 476.882 318.29 475.139 316.593C473.698 315.19 472.167 312.814 472.167 309.376C472.167 306.15 473.526 303.601 475.31 301.904C477.433 299.907 479.937 299.229 482.527 299.229C484.183 299.229 485.711 299.528 487.324 300.291V305.851Z" fill="black"/>
<path d="M498.146 305.851C497.509 306.489 496.743 307.592 496.743 309.29C496.743 310.989 497.465 312.092 498.018 312.686C498.868 313.577 500.184 314.171 501.625 314.171C502.859 314.171 504.003 313.664 504.81 312.855C505.618 312.092 506.297 310.902 506.297 309.29C506.297 307.932 505.787 306.66 504.894 305.808C503.962 304.917 502.603 304.494 501.499 304.494C500.184 304.494 498.952 305.045 498.146 305.851ZM505.915 299.866H512.028V318.799H505.915V316.508C504.259 319.053 501.881 319.437 500.312 319.437C497.593 319.437 495.302 318.758 493.221 316.549C491.226 314.427 490.461 311.965 490.461 309.461C490.461 306.276 491.651 303.56 493.39 301.819C495.046 300.163 497.34 299.229 499.971 299.229C501.584 299.229 504.174 299.613 505.915 301.988V299.866Z" fill="black"/>
<path d="M523.611 305.767C522.72 306.617 522.124 307.848 522.124 309.376C522.124 310.777 522.72 312.008 523.611 312.858C524.546 313.749 525.734 314.171 526.796 314.171C527.943 314.171 529.3 313.707 530.275 312.771C530.999 312.092 531.678 310.948 531.678 309.376C531.678 307.763 531.04 306.66 530.318 305.895C529.343 304.874 528.196 304.494 526.88 304.494C525.649 304.494 524.587 304.833 523.611 305.767ZM537.409 318.799H531.296V316.508C530.362 317.865 528.664 319.437 525.309 319.437C522.508 319.437 520.47 318.546 518.814 316.846C516.861 314.895 515.842 312.177 515.842 309.246C515.842 306.107 516.989 303.517 518.814 301.776C520.47 300.207 522.805 299.229 525.393 299.229C527.474 299.229 529.768 299.907 531.296 301.988V287.85H537.409V318.799Z" fill="black"/>
<path d="M556.082 306.744C556.039 306.574 555.742 305.384 554.851 304.537C554.172 303.899 553.196 303.475 551.963 303.475C550.394 303.475 549.459 304.112 548.865 304.706C548.397 305.215 547.974 305.894 547.803 306.744H556.082ZM561.729 310.396H547.591C547.591 311.413 547.974 312.772 548.737 313.62C549.672 314.639 550.944 314.81 551.879 314.81C552.772 314.81 553.706 314.639 554.341 314.259C554.426 314.216 555.148 313.748 555.657 312.688L561.432 313.282C560.582 315.957 558.885 317.357 557.781 318.038C555.954 319.141 553.916 319.436 551.794 319.436C548.95 319.436 546.446 318.926 544.237 316.72C542.583 315.064 541.393 312.56 541.393 309.419C541.393 306.7 542.371 303.899 544.28 301.946C546.572 299.653 549.418 299.228 551.54 299.228C553.663 299.228 556.719 299.612 559.054 302.072C561.304 304.452 561.729 307.422 561.729 309.757V310.396Z" fill="black"/>
<path d="M565.544 299.866H571.657V302.072C573.229 299.696 575.52 299.397 576.964 299.397C577.77 299.397 579.255 299.482 580.53 300.249C581.505 300.8 582.312 301.734 582.821 302.881C583.289 302.116 584.011 301.225 585.243 300.459C586.558 299.653 587.79 299.397 589.275 299.397C591.568 299.397 593.435 300.08 594.583 301.183C596.407 302.922 596.534 305.469 596.534 306.828V318.801H590.421V309.204C590.421 308.231 590.421 306.529 589.615 305.512C589.105 304.875 588.299 304.494 587.408 304.494C586.387 304.494 585.539 304.962 585.03 305.64C584.224 306.659 584.096 308.144 584.096 309.375V318.801H577.983V308.951C577.983 307.678 577.939 306.191 577.007 305.257C576.37 304.622 575.605 304.494 574.967 304.494C574.161 304.494 573.441 304.706 572.847 305.257C571.698 306.36 571.657 308.484 571.657 309.12V318.801H565.544V299.866Z" fill="black"/>
<path d="M608.075 316.381L599.031 299.865H606.079L611.429 310.14L616.651 299.865H623.527L608.287 328.523H601.409L608.075 316.381Z" fill="black"/>
<path d="M228.008 265.324C228.685 266.496 229.466 267.362 230.352 267.922C231.237 268.482 232.279 268.762 233.477 268.762C234.753 268.762 235.749 268.417 236.465 267.727C237.194 267.036 237.559 266.086 237.559 264.875C237.559 264.094 237.35 263.397 236.934 262.785C236.517 262.173 235.885 261.633 235.039 261.164C234.831 261.047 234.525 260.878 234.121 260.656C231.777 259.38 230.202 258.293 229.395 257.395C228.809 256.73 228.359 255.975 228.047 255.129C227.747 254.27 227.598 253.345 227.598 252.355C227.598 249.895 228.483 247.844 230.254 246.203C232.025 244.549 234.258 243.723 236.953 243.723C238.581 243.723 240.026 244.029 241.289 244.641C242.552 245.24 243.626 246.145 244.512 247.355L241.445 251.32C240.938 250.37 240.312 249.66 239.57 249.191C238.828 248.723 237.969 248.488 236.992 248.488C235.885 248.488 234.967 248.807 234.238 249.445C233.522 250.083 233.164 250.897 233.164 251.887C233.164 253.176 234.349 254.491 236.719 255.832C237.174 256.092 237.52 256.294 237.754 256.438C239.902 257.701 241.361 258.938 242.129 260.148C242.897 261.359 243.281 262.922 243.281 264.836C243.281 267.505 242.376 269.66 240.566 271.301C238.77 272.941 236.38 273.762 233.398 273.762C231.589 273.762 229.974 273.404 228.555 272.688C227.135 271.971 225.872 270.878 224.766 269.406L228.008 265.324ZM246.738 273L250.508 244.406H267.5L266.875 249.445H255.781L254.941 255.871H265.996L265.352 260.793H254.277L253.34 267.961H264.434L263.75 273H246.738ZM286.113 248.918C283.275 248.918 280.918 249.96 279.043 252.043C277.168 254.113 276.23 256.724 276.23 259.875C276.23 262.531 276.986 264.647 278.496 266.223C280.02 267.785 282.051 268.566 284.59 268.566C287.415 268.566 289.766 267.512 291.641 265.402C293.529 263.293 294.473 260.676 294.473 257.551C294.473 254.908 293.717 252.811 292.207 251.262C290.697 249.699 288.665 248.918 286.113 248.918ZM284.277 273.762C279.993 273.762 276.562 272.512 273.984 270.012C271.406 267.512 270.117 264.185 270.117 260.031C270.117 258 270.482 256.021 271.211 254.094C271.94 252.167 272.975 250.441 274.316 248.918C275.827 247.238 277.617 245.956 279.688 245.07C281.771 244.172 284.023 243.723 286.445 243.723C290.729 243.723 294.16 244.96 296.738 247.434C299.316 249.895 300.605 253.163 300.605 257.238C300.605 259.361 300.273 261.359 299.609 263.234C298.958 265.096 298.008 266.75 296.758 268.195C295.182 270.018 293.333 271.405 291.211 272.355C289.089 273.293 286.777 273.762 284.277 273.762ZM313.223 244.406L311.055 260.559C311.003 260.975 310.964 261.424 310.938 261.906C310.911 262.388 310.898 262.915 310.898 263.488C310.898 265.246 311.328 266.581 312.188 267.492C313.06 268.391 314.323 268.84 315.977 268.84C317.148 268.84 318.177 268.605 319.062 268.137C319.948 267.655 320.684 266.945 321.27 266.008C321.999 264.81 322.591 262.479 323.047 259.016C323.073 258.82 323.092 258.684 323.105 258.605L325.02 244.406H330.938L328.828 260.48C328.477 263.124 328.073 265.083 327.617 266.359C327.174 267.622 326.562 268.742 325.781 269.719C324.648 271.112 323.249 272.141 321.582 272.805C319.915 273.469 317.917 273.801 315.586 273.801C311.979 273.801 309.29 272.987 307.52 271.359C305.749 269.732 304.863 267.277 304.863 263.996C304.863 263.527 304.915 262.733 305.02 261.613C305.137 260.493 305.299 259.113 305.508 257.473L307.227 244.406H313.223ZM333.301 273L337.07 244.406H343.066L339.941 267.922H349.863L349.199 273H333.301ZM352.637 270.207C352.637 269.27 352.962 268.469 353.613 267.805C354.277 267.141 355.072 266.809 355.996 266.809C356.921 266.809 357.708 267.141 358.359 267.805C359.023 268.469 359.355 269.27 359.355 270.207C359.355 271.132 359.03 271.919 358.379 272.57C357.728 273.208 356.934 273.527 355.996 273.527C355.059 273.527 354.264 273.208 353.613 272.57C352.962 271.919 352.637 271.132 352.637 270.207ZM387.559 271.965C386.361 272.564 385.065 273.013 383.672 273.312C382.292 273.612 380.814 273.762 379.238 273.762C375.046 273.762 371.667 272.512 369.102 270.012C366.549 267.512 365.273 264.23 365.273 260.168C365.273 258.046 365.632 256.021 366.348 254.094C367.064 252.167 368.092 250.441 369.434 248.918C370.931 247.225 372.715 245.936 374.785 245.051C376.868 244.165 379.141 243.723 381.602 243.723C383.346 243.723 384.974 243.938 386.484 244.367C388.008 244.797 389.447 245.448 390.801 246.32L389.961 251.926C388.516 250.884 387.109 250.116 385.742 249.621C384.375 249.126 382.995 248.879 381.602 248.879C378.594 248.879 376.133 249.908 374.219 251.965C372.305 254.022 371.348 256.659 371.348 259.875C371.348 262.518 372.103 264.621 373.613 266.184C375.124 267.746 377.155 268.527 379.707 268.527C381.361 268.527 382.891 268.306 384.297 267.863C385.716 267.408 387.031 266.717 388.242 265.793L387.559 271.965ZM403.516 258.234C401.875 258.234 400.553 258.794 399.551 259.914C398.548 261.021 398.047 262.479 398.047 264.289C398.047 265.656 398.418 266.737 399.16 267.531C399.915 268.326 400.944 268.723 402.246 268.723C403.861 268.723 405.176 268.176 406.191 267.082C407.207 265.988 407.715 264.562 407.715 262.805C407.715 261.372 407.344 260.259 406.602 259.465C405.872 258.671 404.844 258.26 403.516 258.234ZM403.477 253.195C406.484 253.195 408.88 254.061 410.664 255.793C412.461 257.525 413.359 259.849 413.359 262.766C413.359 265.956 412.305 268.586 410.195 270.656C408.086 272.727 405.378 273.762 402.07 273.762C399.141 273.762 396.797 272.902 395.039 271.184C393.281 269.465 392.402 267.18 392.402 264.328C392.402 261.073 393.438 258.404 395.508 256.32C397.591 254.237 400.247 253.195 403.477 253.195ZM416.074 273L418.594 253.84H423.711L423.281 256.848C424.297 255.546 425.286 254.615 426.25 254.055C427.227 253.482 428.301 253.195 429.473 253.195C430.788 253.195 431.888 253.514 432.773 254.152C433.659 254.79 434.329 255.741 434.785 257.004C435.905 255.624 436.96 254.647 437.949 254.074C438.939 253.488 440.02 253.195 441.191 253.195C442.884 253.195 444.219 253.716 445.195 254.758C446.185 255.786 446.68 257.199 446.68 258.996C446.68 259.413 446.654 259.908 446.602 260.48C446.549 261.04 446.452 261.854 446.309 262.922L445 273H439.551L440.918 262.316C440.931 262.173 440.957 261.958 440.996 261.672C441.074 261.06 441.113 260.702 441.113 260.598C441.113 259.647 440.905 258.938 440.488 258.469C440.085 258 439.466 257.766 438.633 257.766C437.422 257.766 436.491 258.215 435.84 259.113C435.189 259.999 434.733 261.47 434.473 263.527L433.242 273H427.754L429.16 262.316C429.212 261.926 429.251 261.581 429.277 261.281C429.303 260.982 429.316 260.754 429.316 260.598C429.316 259.647 429.108 258.938 428.691 258.469C428.288 258 427.682 257.766 426.875 257.766C425.677 257.766 424.753 258.202 424.102 259.074C423.464 259.947 423.014 261.431 422.754 263.527L421.504 273H416.074ZM450.215 273L452.734 253.84H457.852L457.422 256.848C458.438 255.546 459.427 254.615 460.391 254.055C461.367 253.482 462.441 253.195 463.613 253.195C464.928 253.195 466.029 253.514 466.914 254.152C467.799 254.79 468.47 255.741 468.926 257.004C470.046 255.624 471.1 254.647 472.09 254.074C473.079 253.488 474.16 253.195 475.332 253.195C477.025 253.195 478.359 253.716 479.336 254.758C480.326 255.786 480.82 257.199 480.82 258.996C480.82 259.413 480.794 259.908 480.742 260.48C480.69 261.04 480.592 261.854 480.449 262.922L479.141 273H473.691L475.059 262.316C475.072 262.173 475.098 261.958 475.137 261.672C475.215 261.06 475.254 260.702 475.254 260.598C475.254 259.647 475.046 258.938 474.629 258.469C474.225 258 473.607 257.766 472.773 257.766C471.562 257.766 470.632 258.215 469.98 259.113C469.329 259.999 468.874 261.47 468.613 263.527L467.383 273H461.895L463.301 262.316C463.353 261.926 463.392 261.581 463.418 261.281C463.444 260.982 463.457 260.754 463.457 260.598C463.457 259.647 463.249 258.938 462.832 258.469C462.428 258 461.823 257.766 461.016 257.766C459.818 257.766 458.893 258.202 458.242 259.074C457.604 259.947 457.155 261.431 456.895 263.527L455.645 273H450.215ZM492.227 253.84L491.191 261.848C491.165 262.069 491.12 262.401 491.055 262.844C490.885 264.042 490.801 264.868 490.801 265.324C490.801 266.47 491.094 267.349 491.68 267.961C492.279 268.573 493.132 268.879 494.238 268.879C495.762 268.879 496.888 268.391 497.617 267.414C498.346 266.424 498.913 264.458 499.316 261.516L500.312 253.84H505.84L504.707 262.199C504.368 264.829 503.965 266.763 503.496 268C503.04 269.237 502.409 270.266 501.602 271.086C500.729 271.971 499.661 272.635 498.398 273.078C497.148 273.534 495.723 273.762 494.121 273.762C491.4 273.762 489.238 273.124 487.637 271.848C486.035 270.559 485.234 268.833 485.234 266.672C485.234 266.164 485.273 265.448 485.352 264.523C485.443 263.599 485.592 262.368 485.801 260.832L486.719 253.84H492.227ZM508.574 273L511.094 253.84H516.211L515.781 256.848C516.953 255.585 518.112 254.66 519.258 254.074C520.404 253.488 521.615 253.195 522.891 253.195C524.961 253.195 526.569 253.703 527.715 254.719C528.874 255.734 529.453 257.147 529.453 258.957C529.453 259.673 529.342 260.832 529.121 262.434C529.095 262.629 529.076 262.772 529.062 262.863L527.734 273H522.207L523.613 262.316C523.652 261.939 523.678 261.613 523.691 261.34C523.717 261.053 523.73 260.819 523.73 260.637C523.73 259.738 523.477 259.042 522.969 258.547C522.461 258.052 521.745 257.805 520.82 257.805C519.206 257.805 517.949 258.28 517.051 259.23C516.165 260.168 515.592 261.626 515.332 263.605L514.102 273H508.574ZM536.074 246.438C536.074 245.526 536.387 244.758 537.012 244.133C537.637 243.508 538.405 243.195 539.316 243.195C540.215 243.195 540.977 243.514 541.602 244.152C542.227 244.777 542.539 245.539 542.539 246.438C542.539 247.336 542.227 248.104 541.602 248.742C540.977 249.367 540.215 249.68 539.316 249.68C538.405 249.68 537.637 249.367 537.012 248.742C536.387 248.117 536.074 247.349 536.074 246.438ZM533.145 273L535.625 253.84H541.152L538.672 273H533.145ZM545.195 273L547.168 258.195H543.516L544.082 253.84H547.715L548.555 247.473H554.121L553.242 253.84H556.953L556.406 258.195H552.676L550.723 273H545.195ZM561.914 272.004L556.992 253.84H562.949L564.922 263.938C565.013 264.367 565.163 265.311 565.371 266.77C565.41 267.069 565.443 267.303 565.469 267.473C565.625 266.874 565.814 266.268 566.035 265.656C566.27 265.044 566.536 264.426 566.836 263.801L571.758 253.84H578.105L562.988 281.711H556.68L561.914 272.004Z" fill="black"/>
</svg>
